<mxfile host="app.diagrams.net" modified="2024-02-07T09:45:14.590Z" agent="Mozilla/5.0 (Windows NT 10.0; Win64; x64) AppleWebKit/537.36 (KHTML, like Gecko) Chrome/121.0.0.0 Safari/537.36" etag="sU6QG6Ye4m2sUsblmARh" version="23.1.1" type="device">
  <diagram name="Page-1" id="V4bgmsYZu45_N35z9XrO">
    <mxGraphModel dx="1444" dy="827" grid="1" gridSize="10" guides="1" tooltips="1" connect="1" arrows="1" fold="1" page="1" pageScale="1" pageWidth="827" pageHeight="1169" math="0" shadow="0">
      <root>
        <mxCell id="0" />
        <mxCell id="1" parent="0" />
        <mxCell id="P-GnRq3ns9m0cEPDuUyZ-26" value="" style="rounded=1;whiteSpace=wrap;html=1;arcSize=4;imageHeight=24;" vertex="1" parent="1">
          <mxGeometry x="240" y="120" width="350" height="440" as="geometry" />
        </mxCell>
        <mxCell id="P-GnRq3ns9m0cEPDuUyZ-25" value="" style="rounded=1;whiteSpace=wrap;html=1;" vertex="1" parent="1">
          <mxGeometry x="130" y="120" width="100" height="440" as="geometry" />
        </mxCell>
        <mxCell id="P-GnRq3ns9m0cEPDuUyZ-39" style="edgeStyle=orthogonalEdgeStyle;rounded=0;orthogonalLoop=1;jettySize=auto;html=1;entryX=0;entryY=0.5;entryDx=0;entryDy=0;" edge="1" parent="1" source="P-GnRq3ns9m0cEPDuUyZ-2" target="P-GnRq3ns9m0cEPDuUyZ-15">
          <mxGeometry relative="1" as="geometry" />
        </mxCell>
        <mxCell id="P-GnRq3ns9m0cEPDuUyZ-2" value="0" style="rounded=0;whiteSpace=wrap;html=1;" vertex="1" parent="1">
          <mxGeometry x="140" y="150" width="80" height="40" as="geometry" />
        </mxCell>
        <mxCell id="P-GnRq3ns9m0cEPDuUyZ-31" style="edgeStyle=orthogonalEdgeStyle;rounded=0;orthogonalLoop=1;jettySize=auto;html=1;exitX=1;exitY=0.5;exitDx=0;exitDy=0;entryX=0;entryY=0.5;entryDx=0;entryDy=0;" edge="1" parent="1" source="P-GnRq3ns9m0cEPDuUyZ-5" target="P-GnRq3ns9m0cEPDuUyZ-16">
          <mxGeometry relative="1" as="geometry" />
        </mxCell>
        <mxCell id="P-GnRq3ns9m0cEPDuUyZ-5" value="1" style="rounded=0;whiteSpace=wrap;html=1;" vertex="1" parent="1">
          <mxGeometry x="140" y="190" width="80" height="40" as="geometry" />
        </mxCell>
        <mxCell id="P-GnRq3ns9m0cEPDuUyZ-6" value="2" style="rounded=0;whiteSpace=wrap;html=1;" vertex="1" parent="1">
          <mxGeometry x="140" y="230" width="80" height="40" as="geometry" />
        </mxCell>
        <mxCell id="P-GnRq3ns9m0cEPDuUyZ-32" style="edgeStyle=orthogonalEdgeStyle;rounded=0;orthogonalLoop=1;jettySize=auto;html=1;exitX=1;exitY=0.5;exitDx=0;exitDy=0;" edge="1" parent="1" source="P-GnRq3ns9m0cEPDuUyZ-7" target="P-GnRq3ns9m0cEPDuUyZ-17">
          <mxGeometry relative="1" as="geometry" />
        </mxCell>
        <mxCell id="P-GnRq3ns9m0cEPDuUyZ-7" value="3" style="rounded=0;whiteSpace=wrap;html=1;" vertex="1" parent="1">
          <mxGeometry x="140" y="270" width="80" height="40" as="geometry" />
        </mxCell>
        <mxCell id="P-GnRq3ns9m0cEPDuUyZ-8" value="4" style="rounded=0;whiteSpace=wrap;html=1;" vertex="1" parent="1">
          <mxGeometry x="140" y="310" width="80" height="40" as="geometry" />
        </mxCell>
        <mxCell id="P-GnRq3ns9m0cEPDuUyZ-9" value="5" style="rounded=0;whiteSpace=wrap;html=1;" vertex="1" parent="1">
          <mxGeometry x="140" y="350" width="80" height="40" as="geometry" />
        </mxCell>
        <mxCell id="P-GnRq3ns9m0cEPDuUyZ-46" value="" style="edgeStyle=orthogonalEdgeStyle;rounded=0;orthogonalLoop=1;jettySize=auto;html=1;" edge="1" parent="1" source="P-GnRq3ns9m0cEPDuUyZ-10" target="P-GnRq3ns9m0cEPDuUyZ-44">
          <mxGeometry relative="1" as="geometry" />
        </mxCell>
        <mxCell id="P-GnRq3ns9m0cEPDuUyZ-10" value="6" style="rounded=0;whiteSpace=wrap;html=1;" vertex="1" parent="1">
          <mxGeometry x="140" y="390" width="80" height="40" as="geometry" />
        </mxCell>
        <mxCell id="P-GnRq3ns9m0cEPDuUyZ-35" style="edgeStyle=orthogonalEdgeStyle;rounded=0;orthogonalLoop=1;jettySize=auto;html=1;exitX=1;exitY=0.5;exitDx=0;exitDy=0;entryX=0;entryY=0.5;entryDx=0;entryDy=0;" edge="1" parent="1" source="P-GnRq3ns9m0cEPDuUyZ-11" target="P-GnRq3ns9m0cEPDuUyZ-20">
          <mxGeometry relative="1" as="geometry" />
        </mxCell>
        <mxCell id="P-GnRq3ns9m0cEPDuUyZ-11" value="7" style="rounded=0;whiteSpace=wrap;html=1;" vertex="1" parent="1">
          <mxGeometry x="140" y="430" width="80" height="40" as="geometry" />
        </mxCell>
        <mxCell id="P-GnRq3ns9m0cEPDuUyZ-12" value="8" style="rounded=0;whiteSpace=wrap;html=1;" vertex="1" parent="1">
          <mxGeometry x="140" y="470" width="80" height="40" as="geometry" />
        </mxCell>
        <mxCell id="P-GnRq3ns9m0cEPDuUyZ-36" style="edgeStyle=orthogonalEdgeStyle;rounded=0;orthogonalLoop=1;jettySize=auto;html=1;exitX=1;exitY=0.5;exitDx=0;exitDy=0;entryX=0;entryY=0.5;entryDx=0;entryDy=0;" edge="1" parent="1" source="P-GnRq3ns9m0cEPDuUyZ-13" target="P-GnRq3ns9m0cEPDuUyZ-21">
          <mxGeometry relative="1" as="geometry" />
        </mxCell>
        <mxCell id="P-GnRq3ns9m0cEPDuUyZ-13" value="9" style="rounded=0;whiteSpace=wrap;html=1;" vertex="1" parent="1">
          <mxGeometry x="140" y="510" width="80" height="40" as="geometry" />
        </mxCell>
        <mxCell id="P-GnRq3ns9m0cEPDuUyZ-14" value="key: jhlk&lt;br style=&quot;border-color: var(--border-color);&quot;&gt;value: 12" style="rounded=0;whiteSpace=wrap;html=1;" vertex="1" parent="1">
          <mxGeometry x="380" y="150" width="80" height="40" as="geometry" />
        </mxCell>
        <mxCell id="P-GnRq3ns9m0cEPDuUyZ-16" value="key: gtyh&lt;br style=&quot;border-color: var(--border-color);&quot;&gt;value: 2" style="rounded=0;whiteSpace=wrap;html=1;" vertex="1" parent="1">
          <mxGeometry x="260" y="190" width="80" height="40" as="geometry" />
        </mxCell>
        <mxCell id="P-GnRq3ns9m0cEPDuUyZ-33" style="edgeStyle=orthogonalEdgeStyle;rounded=0;orthogonalLoop=1;jettySize=auto;html=1;exitX=1;exitY=0.5;exitDx=0;exitDy=0;entryX=0;entryY=0.5;entryDx=0;entryDy=0;" edge="1" parent="1" source="P-GnRq3ns9m0cEPDuUyZ-17" target="P-GnRq3ns9m0cEPDuUyZ-18">
          <mxGeometry relative="1" as="geometry" />
        </mxCell>
        <mxCell id="P-GnRq3ns9m0cEPDuUyZ-17" value="key: egre&lt;br style=&quot;border-color: var(--border-color);&quot;&gt;value: 45" style="rounded=0;whiteSpace=wrap;html=1;" vertex="1" parent="1">
          <mxGeometry x="260" y="270" width="80" height="40" as="geometry" />
        </mxCell>
        <mxCell id="P-GnRq3ns9m0cEPDuUyZ-34" style="edgeStyle=orthogonalEdgeStyle;rounded=0;orthogonalLoop=1;jettySize=auto;html=1;exitX=1;exitY=0.5;exitDx=0;exitDy=0;entryX=0;entryY=0.5;entryDx=0;entryDy=0;" edge="1" parent="1" source="P-GnRq3ns9m0cEPDuUyZ-18" target="P-GnRq3ns9m0cEPDuUyZ-19">
          <mxGeometry relative="1" as="geometry" />
        </mxCell>
        <mxCell id="P-GnRq3ns9m0cEPDuUyZ-18" value="key: ddfd&lt;br style=&quot;border-color: var(--border-color);&quot;&gt;value: 80" style="rounded=0;whiteSpace=wrap;html=1;" vertex="1" parent="1">
          <mxGeometry x="380" y="270" width="80" height="40" as="geometry" />
        </mxCell>
        <mxCell id="P-GnRq3ns9m0cEPDuUyZ-19" value="key: otro&lt;br style=&quot;border-color: var(--border-color);&quot;&gt;value: 23" style="rounded=0;whiteSpace=wrap;html=1;" vertex="1" parent="1">
          <mxGeometry x="500" y="270" width="80" height="40" as="geometry" />
        </mxCell>
        <mxCell id="P-GnRq3ns9m0cEPDuUyZ-20" value="key: bnbv&lt;br style=&quot;border-color: var(--border-color);&quot;&gt;value: 11" style="rounded=0;whiteSpace=wrap;html=1;" vertex="1" parent="1">
          <mxGeometry x="260" y="430" width="80" height="40" as="geometry" />
        </mxCell>
        <mxCell id="P-GnRq3ns9m0cEPDuUyZ-37" style="edgeStyle=orthogonalEdgeStyle;rounded=0;orthogonalLoop=1;jettySize=auto;html=1;exitX=1;exitY=0.5;exitDx=0;exitDy=0;entryX=0;entryY=0.5;entryDx=0;entryDy=0;" edge="1" parent="1" source="P-GnRq3ns9m0cEPDuUyZ-21" target="P-GnRq3ns9m0cEPDuUyZ-22">
          <mxGeometry relative="1" as="geometry" />
        </mxCell>
        <mxCell id="P-GnRq3ns9m0cEPDuUyZ-21" value="key: mjuu&lt;br style=&quot;border-color: var(--border-color);&quot;&gt;value: 3" style="rounded=0;whiteSpace=wrap;html=1;" vertex="1" parent="1">
          <mxGeometry x="260" y="510" width="80" height="40" as="geometry" />
        </mxCell>
        <mxCell id="P-GnRq3ns9m0cEPDuUyZ-22" value="key: giyu&lt;br style=&quot;border-color: var(--border-color);&quot;&gt;value: 59" style="rounded=0;whiteSpace=wrap;html=1;" vertex="1" parent="1">
          <mxGeometry x="380" y="510" width="80" height="40" as="geometry" />
        </mxCell>
        <mxCell id="P-GnRq3ns9m0cEPDuUyZ-23" value="Index" style="text;html=1;align=center;verticalAlign=middle;resizable=0;points=[];autosize=1;strokeColor=none;fillColor=none;" vertex="1" parent="1">
          <mxGeometry x="155" y="120" width="50" height="30" as="geometry" />
        </mxCell>
        <mxCell id="P-GnRq3ns9m0cEPDuUyZ-24" value="Nodes" style="text;html=1;align=center;verticalAlign=middle;resizable=0;points=[];autosize=1;strokeColor=none;fillColor=none;" vertex="1" parent="1">
          <mxGeometry x="384" y="120" width="60" height="30" as="geometry" />
        </mxCell>
        <mxCell id="P-GnRq3ns9m0cEPDuUyZ-40" style="edgeStyle=orthogonalEdgeStyle;rounded=0;orthogonalLoop=1;jettySize=auto;html=1;entryX=0;entryY=0.5;entryDx=0;entryDy=0;" edge="1" parent="1" source="P-GnRq3ns9m0cEPDuUyZ-15" target="P-GnRq3ns9m0cEPDuUyZ-14">
          <mxGeometry relative="1" as="geometry" />
        </mxCell>
        <mxCell id="P-GnRq3ns9m0cEPDuUyZ-15" value="key: frgh&lt;br&gt;value: 34" style="rounded=0;whiteSpace=wrap;html=1;" vertex="1" parent="1">
          <mxGeometry x="260" y="150" width="80" height="40" as="geometry" />
        </mxCell>
        <mxCell id="P-GnRq3ns9m0cEPDuUyZ-44" value="key: abcd&lt;br style=&quot;border-color: var(--border-color);&quot;&gt;value: 10" style="rounded=0;whiteSpace=wrap;html=1;" vertex="1" parent="1">
          <mxGeometry x="260" y="390" width="80" height="40" as="geometry" />
        </mxCell>
      </root>
    </mxGraphModel>
  </diagram>
</mxfile>
